# Blender v3.1.2 OBJ File: 'dart.blend'
# www.blender.org
# mesh flags 0x08
o Shaft_Cube
v 0.002000 0.060000 -0.002000
v 0.002000 -0.048000 -0.002000
v 0.002000 0.060000 0.002000
v 0.002000 -0.048000 0.002000
v -0.002000 0.060000 -0.002000
v -0.002000 -0.048000 -0.002000
v -0.002000 0.060000 0.002000
v -0.002000 -0.048000 0.002000
v 0.000000 0.080000 0.000000
v 0.000000 -0.060000 0.000000
vt 0.625000 0.500000
vt 0.625000 0.250000
vt 0.000000 0.000000
vt 0.625000 0.750000
vt 0.375000 1.000000
vt 0.375000 0.750000
vt 0.625000 0.000000
vt 0.375000 0.250000
vt 0.375000 0.000000
vt 0.000000 0.000000
vt 0.375000 0.500000
vt 0.625000 1.000000
vn 0.0000 0.0995 -0.9950
vn 0.0000 0.0000 1.0000
vn -1.0000 0.0000 0.0000
vn 0.0000 -0.1644 0.9864
vn 1.0000 0.0000 0.0000
vn 0.0000 0.0000 -1.0000
vn -0.9950 0.0995 0.0000
vn 0.0000 0.0995 0.9950
vn 0.9950 0.0995 0.0000
vn 0.9864 -0.1644 0.0000
vn 0.0000 -0.1644 -0.9864
vn -0.9864 -0.1644 0.0000
s off
f 1/1/1 5/2/1 9/3/1
f 3/4/2 8/5/2 4/6/2
f 7/7/3 6/8/3 8/9/3
f 4/6/4 8/5/4 10/10/4
f 1/1/5 4/6/5 2/11/5
f 5/2/6 2/11/6 6/8/6
f 5/2/7 7/7/7 9/3/7
f 7/7/8 3/4/8 9/3/8
f 3/4/9 1/1/9 9/3/9
f 2/11/10 4/6/10 10/10/10
f 6/8/11 2/11/11 10/10/11
f 8/5/12 6/8/12 10/10/12
f 3/4/2 7/12/2 8/5/2
f 7/7/3 5/2/3 6/8/3
f 1/1/5 3/4/5 4/6/5
f 5/2/6 1/1/6 2/11/6
