# Blender v3.1.2 OBJ File: 'dart.blend'
# www.blender.org
o Cover+Fins_Cube.001
v -0.004000 -0.004000 0.000000
v -0.004000 -0.004000 -0.050000
v 0.004000 -0.004000 -0.000000
v 0.004000 -0.004000 -0.050000
v -0.004000 0.004000 0.000000
v -0.004000 0.004000 -0.050000
v 0.004000 0.004000 -0.000000
v 0.004000 0.004000 -0.050000
v 0.000000 0.000000 0.005000
v 0.000000 0.000000 -0.055000
v 0.000000 0.020000 0.048000
v 0.000000 0.000000 0.035000
v 0.000000 0.020000 0.080000
v 0.000000 -0.020000 0.080000
v 0.000000 -0.020000 0.048000
v -0.000000 -0.020000 0.048000
v -0.000000 -0.000000 0.035000
v -0.000000 -0.020000 0.080000
v 0.000000 0.020000 0.080000
v 0.000000 0.020000 0.048000
v -0.020000 0.000000 0.048000
v -0.000000 0.000000 0.035000
v -0.020000 0.000000 0.080000
v 0.020000 -0.000000 0.080000
v 0.020000 -0.000000 0.048000
v 0.020000 -0.000000 0.048000
v 0.000000 -0.000000 0.035000
v 0.020000 -0.000000 0.080000
v -0.020000 0.000000 0.080000
v -0.020000 0.000000 0.048000
vt 0.625000 0.000000
vt 0.375000 0.250000
vt 0.375000 0.000000
vt 0.625000 0.250000
vt 0.375000 0.500000
vt 0.625000 0.750000
vt 0.375000 0.750000
vt 0.375000 1.000000
vt 0.625000 0.500000
vt 0.000000 0.000000
vt 0.000000 0.000000
vt 1.000000 1.000000
vt 0.000000 0.000000
vt 1.000000 0.500000
vt 1.000000 1.000000
vt 0.000000 0.000000
vt 1.000000 0.500000
vt 1.000000 1.000000
vt 0.000000 0.000000
vt 1.000000 0.500000
vt 1.000000 1.000000
vt 0.000000 0.000000
vt 1.000000 0.500000
vt 0.625000 1.000000
vt 0.000000 1.000000
vt 1.000000 0.000000
vt 0.000000 1.000000
vt 1.000000 0.000000
vt 0.000000 1.000000
vt 1.000000 0.000000
vt 0.000000 1.000000
vt 1.000000 0.000000
vn 0.0000 -1.0000 0.0000
vn 1.0000 0.0000 0.0000
vn 0.0000 1.0000 0.0000
vn -1.0000 0.0000 0.0000
vn 0.7809 0.0000 -0.6247
vn -0.7809 0.0000 0.6247
vn 0.0000 0.7809 0.6247
vn 0.0000 -0.7809 0.6247
vn 0.7809 0.0000 0.6247
vn 0.0000 -0.7809 -0.6247
vn -0.7809 0.0000 -0.6247
vn 0.0000 0.7809 -0.6247
s off
f 2/1/1 3/2/1 1/3/1
f 4/4/2 7/5/2 3/2/2
f 7/5/3 6/6/3 5/7/3
f 6/6/4 1/8/4 5/7/4
f 8/9/5 4/4/5 10/10/5
f 5/7/6 1/3/6 9/11/6
f 7/5/7 5/7/7 9/11/7
f 1/3/8 3/2/8 9/11/8
f 3/2/9 7/5/9 9/11/9
f 4/4/10 2/1/10 10/10/10
f 2/1/11 6/6/11 10/10/11
f 6/6/12 8/9/12 10/10/12
f 14/12/4 11/13/4 15/14/4
f 19/15/2 16/16/2 20/17/2
f 24/18/1 21/19/1 25/20/1
f 29/21/3 26/22/3 30/23/3
f 2/1/1 4/4/1 3/2/1
f 4/4/2 8/9/2 7/5/2
f 7/5/3 8/9/3 6/6/3
f 6/6/4 2/24/4 1/8/4
f 13/25/4 11/13/4 14/12/4
f 11/13/4 12/26/4 15/14/4
f 18/27/2 16/16/2 19/15/2
f 16/16/2 17/28/2 20/17/2
f 23/29/1 21/19/1 24/18/1
f 21/19/1 22/30/1 25/20/1
f 28/31/3 26/22/3 29/21/3
f 26/22/3 27/32/3 30/23/3
